<svg fill="#000000" version="1.1" id="Capa_1" xmlns="http://www.w3.org/2000/svg"
    xmlns:xlink="http://www.w3.org/1999/xlink"
    width="800px" height="800px" viewBox="0 0 965 965" xml:space="preserve">
<g>
	<path d="M965,367.8V184.661c0-6.615-5.361-11.977-11.977-11.977H324.818c-57.962,0-112.196,15.933-158.591,43.635
		c-17.129-21.336-43.416-35.021-72.843-35.021C41.892,181.297,0,223.188,0,274.681c0,33.006,17.213,62.068,43.133,78.68
		C25.08,392.674,15,436.407,15,482.5c0,171.106,138.709,309.816,309.817,309.816c68.259,0,131.356-22.082,182.554-59.482
		c5.342-3.902,9.562-7.27,9.596-7.298c0.031-0.025,0.061-0.052,0.061-0.052l438.49-338.394C960.756,383.053,965,374.415,965,367.8z
		 M30.001,274.682c0-34.95,28.434-63.384,63.384-63.384c19.015,0,36.088,8.428,47.716,21.732
		c-33.987,25.071-62.664,56.916-84.042,93.548C40.714,315.102,30.001,296.125,30.001,274.682z M326.535,682.565
		c-109.093,0-197.531-88.438-197.531-197.531c0-109.093,88.438-197.53,197.531-197.53c109.095,0,197.532,88.438,197.532,197.53
		C524.066,594.128,435.629,682.565,326.535,682.565z"/>
</g>
</svg>